<svg width="581" height="126" viewBox="0 0 581 126" fill="none" xmlns="http://www.w3.org/2000/svg">
<path d="M19.6953 15.5C23.9844 15.5 27.3594 12.0547 27.3594 7.83594C27.3594 3.54688 23.9844 0.171875 19.6953 0.171875C15.4766 0.171875 12.0312 3.54688 12.0312 7.83594C12.0312 12.0547 15.4766 15.5 19.6953 15.5ZM3.17188 125.68C18.7812 125.68 25.8125 118.93 25.8125 104.094V27.875H13.5781V104.234C13.5781 112.391 10.6953 114.852 2.75 114.852H0.851562V125.609C1.625 125.68 2.39844 125.68 3.17188 125.68ZM72.7812 102.406C92.9609 102.406 106.602 87.7812 106.602 64.4375V64.2969C106.602 40.9531 92.8906 26.4688 72.7109 26.4688C52.5312 26.4688 38.8906 41.0234 38.8906 64.2969V64.4375C38.8906 87.7109 52.4609 102.406 72.7812 102.406ZM72.8516 91.5781C59.9141 91.5781 51.4062 81.6641 51.4062 64.4375V64.2969C51.4062 47.2109 59.9844 37.2969 72.7109 37.2969C85.6484 37.2969 94.0859 47.1406 94.0859 64.2969V64.4375C94.0859 81.5938 85.7188 91.5781 72.8516 91.5781ZM118.977 101H131.211V57.9688C131.211 45.5234 138.734 37.2969 150.266 37.2969C161.516 37.2969 167.07 43.8359 167.07 55.7188V101H179.305V53.5391C179.305 36.875 170.023 26.4688 153.992 26.4688C142.883 26.4688 135.43 31.4609 131.492 38.2812H131.211V27.875H118.977V101ZM216.289 102.406C226.062 102.406 234.852 97.1328 239.141 89.1172H239.422V101H251.656V50.4453C251.656 35.8203 240.828 26.4688 223.531 26.4688C206.305 26.4688 195.828 36.1719 194.773 48.1953L194.703 48.9688H206.516L206.656 48.3359C208.062 41.7969 213.969 37.2969 223.391 37.2969C233.586 37.2969 239.422 42.7109 239.422 51.6406V57.7578L218.469 58.9531C201.664 59.9375 191.961 67.7422 191.961 80.1875V80.3281C191.961 93.6172 201.734 102.406 216.289 102.406ZM204.477 80.3281V80.1875C204.477 73.3672 210.102 69.0078 219.875 68.4453L239.422 67.25V73.2266C239.422 83.8438 230.562 91.7891 219.031 91.7891C210.242 91.7891 204.477 87.3594 204.477 80.3281ZM293.141 102.406C309.453 102.406 321.547 93.4062 321.547 80.6094V80.5391C321.547 70.1328 316.203 64.2969 301.438 60.7109L289.836 57.8984C281.75 55.9297 278.445 52.4844 278.445 47.4922V47.4219C278.445 40.9531 283.93 36.6641 292.789 36.6641C301.859 36.6641 307.273 41.375 308.258 48.4766L308.328 48.9688H320L319.93 48.0547C319.016 35.8203 308.82 26.4688 292.789 26.4688C276.969 26.4688 265.93 35.3984 265.93 47.9844V48.0547C265.93 58.6016 272.609 65 286.391 68.3047L297.992 71.1172C306.289 73.1562 309.031 76.1094 309.031 81.3828V81.4531C309.031 88.0625 303.125 92.2109 293.211 92.2109C283.227 92.2109 277.812 87.9219 276.336 80.6094L276.195 79.9062H263.961L264.031 80.5391C265.508 93.6172 275.914 102.406 293.141 102.406ZM334.273 101H346.508V57.9688C346.508 45.5234 354.031 37.2969 365.562 37.2969C376.812 37.2969 382.367 43.8359 382.367 55.7188V101H394.602V53.5391C394.602 36.875 385.32 26.4688 369.289 26.4688C358.18 26.4688 350.727 31.4609 346.789 38.2812H346.508V27.875H334.273V101ZM440.305 102.406C456.266 102.406 468.219 92.8438 470.609 80.75L470.75 80.0469H458.727L458.516 80.6797C456.406 86.9375 449.867 91.5781 440.586 91.5781C427.578 91.5781 419.281 82.7891 419 67.7422H471.664V63.2422C471.664 41.3047 459.5 26.4688 439.531 26.4688C419.562 26.4688 406.625 42.0078 406.625 64.6484V64.7188C406.625 87.7109 419.281 102.406 440.305 102.406ZM439.461 37.2969C450.148 37.2969 458.023 43.9766 459.219 58.1797H419.211C420.547 44.5391 428.844 37.2969 439.461 37.2969ZM476.938 101H490.508L508.156 73.1562H508.438L525.945 101H539.516L515.188 63.9453L539.867 27.875H526.227L508.859 55.2969H508.578L491 27.875H477.359L501.828 64.4375L476.938 101ZM573.898 102.406C576.289 102.406 578.891 102.125 580.438 101.914V92C579.383 92.0703 577.977 92.2812 576.5 92.2812C569.961 92.2812 566.516 90.1016 566.516 82.2969V38H580.438V27.875H566.516V8.11719H553.859V27.875H543.172V38H553.859V82.3672C553.859 96.3594 560.469 102.406 573.898 102.406Z" fill="black"/>
</svg>
